<svg xmlns="http://www.w3.org/2000/svg" width="75" height="75" viewBox="0 0 75 75">
  <g id="brp-crp" transform="translate(-1 -1)">
    <path id="Path_516" data-name="Path 516" d="M17.468,30.774a8.479,8.479,0,0,0,8.468-8.468V17.468A8.468,8.468,0,1,0,9,17.468v4.839A8.479,8.479,0,0,0,17.468,30.774ZM11.419,17.468a6.048,6.048,0,1,1,12.1,0v4.839A6.048,6.048,0,0,1,12.156,25.2,6.048,6.048,0,0,0,21.1,19.887V17.468a3.629,3.629,0,1,0-7.258,0V21.1h2.419V17.468a1.21,1.21,0,0,1,2.419,0v2.419a3.629,3.629,0,0,1-7.258,0Z" transform="translate(1.677 1.677)" fill="#fff"/>
    <path id="Path_517" data-name="Path 517" d="M62.183,18.566l-1.332-.223A2.4,2.4,0,0,1,59.089,17a6.044,6.044,0,0,0,2.549-3.334h0L63.647,9.89A6.05,6.05,0,0,0,58.3,1H53.47a6.052,6.052,0,0,0-5.343,8.892l2.006,3.773h0A6.044,6.044,0,0,0,52.684,17a2.4,2.4,0,0,1-1.762,1.345l-1.332.223A5.475,5.475,0,0,0,45,23.984v1.21H66.774v-1.21a5.475,5.475,0,0,0-4.591-5.418Zm-9.925-6.679v-.924a1.2,1.2,0,0,1,.669-1.083L55.887,8.4l2.96,1.481a1.2,1.2,0,0,1,.669,1.081v.924a3.629,3.629,0,1,1-7.258,0ZM53.47,3.419H58.3a3.632,3.632,0,0,1,3.207,5.336l-.14.264a3.62,3.62,0,0,0-1.442-1.3L55.887,5.7,51.844,7.717a3.62,3.62,0,0,0-1.442,1.3l-.139-.261A3.634,3.634,0,0,1,53.47,3.419ZM47.665,22.774a3.063,3.063,0,0,1,2.323-1.823l1.332-.223a4.836,4.836,0,0,0,3.659-2.886,5.766,5.766,0,0,0,.908.093,5.928,5.928,0,0,0,.91-.092,4.837,4.837,0,0,0,3.658,2.886l1.332.223a3.058,3.058,0,0,1,2.323,1.823H47.665Z" transform="translate(9.226)" fill="#fff"/>
    <path id="Path_518" data-name="Path 518" d="M41.124,44.548H36.857a7.231,7.231,0,0,0-2.845-3.615,7.294,7.294,0,0,0,2.855-3.644H49.484a8.462,8.462,0,1,0,15.778-5.3l3.174-3.571L66.629,26.81l-2.862,3.22a8.451,8.451,0,0,0-14.283,4.841H37.29V15.516H56.645V13.1H37.29V8.258A7.265,7.265,0,0,0,30.032,1H8.258A7.265,7.265,0,0,0,1,8.258V34.871a7.256,7.256,0,0,0,3.254,6.048A7.256,7.256,0,0,0,1,46.968V68.742A7.265,7.265,0,0,0,8.258,76H40.432a23.381,23.381,0,0,0,14.213-4.839H76V48.177H54.556a26.675,26.675,0,0,0-13.432-3.629ZM57.855,30.032a6.031,6.031,0,0,1,4.3,1.807l-4.355,4.9-2.722-2.722-1.71,1.71,4.536,4.536,5.595-6.3a5.988,5.988,0,0,1,.4,2.113,6.048,6.048,0,1,1-6.048-6.048ZM34.214,44.548H10.677V68.742H8.258V42.129H30.032A4.852,4.852,0,0,1,34.214,44.548Zm-5.125,4.979a3.6,3.6,0,0,0-2.419,4.839,3.568,3.568,0,0,0-2.463,4.7H20.355a3.629,3.629,0,1,0,0,7.258H38.5a1.21,1.21,0,0,1,0,2.419H13.1V46.968H29.045a3.481,3.481,0,0,0,.044,2.56ZM20.355,5.839V3.419h2.419V5.839Zm-2.419,0H15.516V3.419h2.419Zm-4.839,0H10.677V3.419H13.1ZM30.032,8.258l0,26.613H8.258V8.258ZM25.194,5.839V3.419h2.419V5.839ZM3.419,34.871V8.258A4.844,4.844,0,0,1,8.258,3.419V5.839A2.422,2.422,0,0,0,5.839,8.258V34.871A2.422,2.422,0,0,0,8.258,37.29H30.032a2.422,2.422,0,0,0,2.419-2.419V8.258a2.422,2.422,0,0,0-2.419-2.419V3.419a4.844,4.844,0,0,1,4.839,4.839V34.871a4.844,4.844,0,0,1-4.839,4.839H8.258A4.844,4.844,0,0,1,3.419,34.871Zm4.839,38.71a4.844,4.844,0,0,1-4.839-4.839V46.968A4.823,4.823,0,0,1,5.839,42.8v25.94a2.422,2.422,0,0,0,2.419,2.419H27.076a4.789,4.789,0,0,0-.673,2.419Zm20.565,0a2.422,2.422,0,0,1,2.419-2.419H38.5a3.629,3.629,0,1,0,0-7.258H20.355a1.21,1.21,0,0,1,0-2.419H39.71V59.065h-12.1a1.21,1.21,0,1,1,0-2.419h12.1V54.226H30.032a1.21,1.21,0,1,1,0-2.419H39.71V49.387H32.452a1.21,1.21,0,1,1,0-2.419h8.672A24.254,24.254,0,0,1,53.016,50.1v19.24a20.933,20.933,0,0,1-12.584,4.242Zm44.758-4.839H55.435V50.6H73.581Z" transform="translate(0 0)" fill="#fff"/>
  </g>
</svg>
