<svg xmlns="http://www.w3.org/2000/svg" width="47.159" height="47.244" viewBox="0 0 47.159 47.244">
  <path id="Icon_feather-phone-call" data-name="Icon feather-phone-call" d="M30.421,9.926a10.532,10.532,0,0,1,8.32,8.32M30.421,1.5A18.958,18.958,0,0,1,47.167,18.225M45.061,35.034v6.319a4.213,4.213,0,0,1-4.592,4.213A41.686,41.686,0,0,1,22.29,39.1,41.075,41.075,0,0,1,9.652,26.461,41.686,41.686,0,0,1,3.185,8.2,4.213,4.213,0,0,1,7.377,3.606H13.7a4.213,4.213,0,0,1,4.213,3.623,27.046,27.046,0,0,0,1.474,5.919,4.213,4.213,0,0,1-.948,4.445L15.76,20.268A33.7,33.7,0,0,0,28.4,32.907l2.675-2.675a4.213,4.213,0,0,1,4.445-.948,27.046,27.046,0,0,0,5.919,1.475A4.213,4.213,0,0,1,45.061,35.034Z" transform="translate(-1.666 0.156)" fill="none" stroke="#ffc22f" stroke-linecap="round" stroke-linejoin="round" stroke-width="3"/>
</svg>
