<svg xmlns="http://www.w3.org/2000/svg" width="21.812" height="32.5" viewBox="0 0 21.812 32.5">
  <g id="location-pin" transform="translate(0 0)">
    <path id="Path_503" data-name="Path 503" d="M14.079,25.022l4.184-5.706c1.871-2.55,3.55-5.113,3.55-8.41A10.919,10.919,0,0,0,10.951,0h-.046A10.918,10.918,0,0,0,0,10.905c0,3.3,1.679,5.86,3.55,8.41l4.183,5.706H2.869L.049,32.5H21.763l-2.82-7.478ZM5.085,18.189C3.346,15.816,1.9,13.63,1.9,10.905a9.011,9.011,0,0,1,8.958-9h.043a9.012,9.012,0,0,1,9,9c0,2.725-1.441,4.911-3.181,7.284l-5.813,7.949ZM2.8,30.6l1.383-3.669H9.13l1.759,2.4s1.47-1.935,1.808-2.4h4.93L19.01,30.6Zm0,0" fill="#ffc22f"/>
    <path id="Path_504" data-name="Path 504" d="M79.432,72.716a6.716,6.716,0,1,0-6.717,6.716A6.724,6.724,0,0,0,79.432,72.716Zm-6.717,4.812a4.812,4.812,0,1,1,4.812-4.812A4.817,4.817,0,0,1,72.715,77.528Zm0,0" transform="translate(-61.809 -61.811)" fill="#ffc22f"/>
  </g>
</svg>
