<svg id="right-quote" xmlns="http://www.w3.org/2000/svg" width="81.603" height="57.059" viewBox="0 0 81.603 57.059">
  <g id="Group_479" data-name="Group 479" transform="translate(43.352)">
    <g id="Group_478" data-name="Group 478">
      <path id="Path_469" data-name="Path 469" d="M19.126,134.059a19.125,19.125,0,0,0,.837-38.233c-.023-.3-.04-.722-.04-1.294,0-2.345,1.783-9.51,2.907-13.475L23.98,77H10.021l-.935,1.507C8.715,79.1,0,93.393,0,114.933A19.148,19.148,0,0,0,19.126,134.059ZM13.677,83.375H15.61c-.916,3.6-2.063,8.613-2.063,11.157a10.346,10.346,0,0,0,.882,4.993,5.1,5.1,0,0,0,4.811,2.657l.139,0a12.75,12.75,0,1,1-13,12.747A70.854,70.854,0,0,1,13.677,83.375Z" transform="translate(0 -77)" fill="#ffc22f"/>
    </g>
  </g>
  <g id="Group_481" data-name="Group 481">
    <g id="Group_480" data-name="Group 480">
      <path id="Path_470" data-name="Path 470" d="M291.126,134.059a19.125,19.125,0,0,0,.837-38.233c-.023-.3-.04-.722-.04-1.294,0-2.345,1.783-9.51,2.907-13.475L295.98,77H282.021l-.935,1.507c-.371.6-9.086,14.886-9.086,36.426A19.148,19.148,0,0,0,291.126,134.059Zm-5.449-50.683h1.933c-.916,3.6-2.063,8.613-2.063,11.157a10.346,10.346,0,0,0,.882,4.993,5.1,5.1,0,0,0,4.811,2.657l.139,0a12.75,12.75,0,1,1-13,12.747A70.854,70.854,0,0,1,285.677,83.375Z" transform="translate(-272 -77)" fill="#ffc22f"/>
    </g>
  </g>
</svg>
