<svg xmlns="http://www.w3.org/2000/svg" width="76.918" height="74.214" viewBox="0 0 76.918 74.214">
  <g id="school" transform="translate(0 -9)">
    <path id="Path_507" data-name="Path 507" d="M252.124,224.628h-1.386v-3.041a1.127,1.127,0,0,0-2.253,0v4.168a1.127,1.127,0,0,0,1.127,1.127h2.513a1.127,1.127,0,0,0,0-2.253Z" transform="translate(-211.155 -179.692)" fill="#fff"/>
    <path id="Path_508" data-name="Path 508" d="M202.688,185.377a9.462,9.462,0,1,0,9.422,9.462A9.453,9.453,0,0,0,202.688,185.377Zm0,16.671a7.209,7.209,0,1,1,7.169-7.209A7.2,7.2,0,0,1,202.688,202.048Z" transform="translate(-164.232 -149.88)" fill="#fff"/>
    <path id="Path_509" data-name="Path 509" d="M48.808,278.109H59.22a1.665,1.665,0,0,0,1.663-1.663V271.26A1.665,1.665,0,0,0,59.22,269.6H48.808a1.667,1.667,0,0,0-1.668,1.663v5.185A1.667,1.667,0,0,0,48.808,278.109Zm6.331-6.258h3.491v4H55.138Zm-5.745,0h3.491v4H49.394Z" transform="translate(-40.058 -221.448)" fill="#fff"/>
    <path id="Path_510" data-name="Path 510" d="M47.14,351.429a1.669,1.669,0,0,0,1.668,1.667H59.22a1.667,1.667,0,0,0,1.663-1.667v-5.181a1.667,1.667,0,0,0-1.663-1.667H48.808a1.669,1.669,0,0,0-1.668,1.667v5.181Zm8-4.595h3.491v4.009H55.138Zm-5.745,0h3.491v4.009H49.394Z" transform="translate(-40.058 -285.167)" fill="#fff"/>
    <path id="Path_511" data-name="Path 511" d="M375.02,278.109h10.412a1.665,1.665,0,0,0,1.663-1.663V271.26a1.665,1.665,0,0,0-1.663-1.663H375.02a1.667,1.667,0,0,0-1.668,1.663v5.185A1.667,1.667,0,0,0,375.02,278.109Zm6.331-6.258h3.491v4H381.35Zm-5.745,0H379.1v4h-3.491Z" transform="translate(-317.263 -221.448)" fill="#fff"/>
    <path id="Path_512" data-name="Path 512" d="M375.02,353.1h10.412a1.667,1.667,0,0,0,1.663-1.667v-5.181a1.667,1.667,0,0,0-1.663-1.667H375.02a1.669,1.669,0,0,0-1.668,1.667v5.181A1.67,1.67,0,0,0,375.02,353.1Zm6.331-6.262h3.491v4.009H381.35Zm-5.745,0H379.1v4.009h-3.491Z" transform="translate(-317.263 -285.167)" fill="#fff"/>
    <path id="Path_513" data-name="Path 513" d="M75.4,36.038H53.675v-3.37h1.382A1.646,1.646,0,0,0,56.7,31.021V26.33a1.646,1.646,0,0,0-1.642-1.646H39.583V21.369h8.932a2.038,2.038,0,0,0,2.034-2.038V12.839A2.038,2.038,0,0,0,48.515,10.8H39.583v-.674a1.127,1.127,0,1,0-2.253,0V24.684H21.861a1.648,1.648,0,0,0-1.646,1.646v4.692a1.648,1.648,0,0,0,1.646,1.646h1.382v3.37H1.51A1.514,1.514,0,0,0,0,37.552v3.955a1.514,1.514,0,0,0,1.51,1.514h.73V58.038a1.127,1.127,0,0,0,2.253,0V43.021h18.75V80.96H4.493V63.24a1.127,1.127,0,1,0-2.253,0V81.406a1.812,1.812,0,0,0,1.812,1.808H72.865a1.81,1.81,0,0,0,1.808-1.808V43.021h.73a1.516,1.516,0,0,0,1.514-1.514V37.552A1.516,1.516,0,0,0,75.4,36.038ZM39.583,13.054H48.3v6.061H39.583ZM23.243,40.767H2.253V38.291h20.99Zm51.421-2.476v2.476H53.675V38.291ZM46.247,80.96H30.666V78.22H46.248v2.74ZM32.791,75.966V62.86H37.33V75.966Zm6.792,0V62.86h4.539V75.966Zm6.792,0V62.529a1.925,1.925,0,0,0-1.923-1.923H32.465a1.927,1.927,0,0,0-1.927,1.923v13.44a2.146,2.146,0,0,0-2.125,2.1V80.96H25.5V32.667H35.714a1.127,1.127,0,1,0,0-2.253H22.469V26.937H54.445v3.477H40.731a1.127,1.127,0,1,0,0,2.253H51.421V80.96H48.5V78.072A2.144,2.144,0,0,0,46.376,75.969ZM72.42,80.96H53.675V43.021H72.42V80.96Z" fill="#fff"/>
  </g>
</svg>
