<svg xmlns="http://www.w3.org/2000/svg" width="53.162" height="75" viewBox="0 0 53.162 75">
  <g id="students" transform="translate(-72.296)">
    <g id="Group_496" data-name="Group 496" transform="translate(72.296)">
      <path id="Path_519" data-name="Path 519" d="M121.834,49.538V41.73l-3.295,1.282-.01-.022-.079-.143a8.481,8.481,0,0,0-5.6-3.75l-7.928-1.443v-.626a12.1,12.1,0,0,0,5.813-8.131,4.841,4.841,0,0,0,3.853-4.733V12.231a7.577,7.577,0,0,0-5.413-7.27l-.6-.6a14.878,14.878,0,0,0-25.4,10.52v9.288A4.841,4.841,0,0,0,87.023,28.9a12.1,12.1,0,0,0,5.813,8.131v.626L84.909,39.1a8.484,8.484,0,0,0-5.6,3.747l-.072.176L75.921,41.73v7.808A3.629,3.629,0,0,0,72.3,53.162V58a3.629,3.629,0,0,0,3.625,3.625v4.451L98.877,75l22.956-8.929V61.62A3.629,3.629,0,0,0,125.458,58V53.162A3.629,3.629,0,0,0,121.834,49.538Zm-14.651-9.015,5.232.951a6.053,6.053,0,0,1,3.814,2.436l-11.69,4.545ZM95.355,38.137a12.037,12.037,0,0,0,7.044,0l-3.522,2.641Zm1.683,4.282-2.466,2.465-1.6-4.8.77-.139Zm6.974-2.471.77.139-1.6,4.8-2.466-2.465Zm6.947-13.7V22.084a2.4,2.4,0,0,1,0,4.161Zm-24.165,0a2.4,2.4,0,0,1,0-4.161Zm0-8.122V19.5a4.792,4.792,0,0,0-1.208.5V14.877a12.461,12.461,0,0,1,21.272-8.81l1.066,1.067.325.08a5.164,5.164,0,0,1,3.918,5.018V20a4.748,4.748,0,0,0-1.208-.5v-1.38h-3.831a10.509,10.509,0,0,1-8.367-4.182L97.8,12.659l-2.4,2.4A10.4,10.4,0,0,1,88,18.124Zm2.416,8.458v-6.1a12.789,12.789,0,0,0,7.9-3.715l.47-.47a12.943,12.943,0,0,0,9.55,4.241h1.415v6.041a9.666,9.666,0,1,1-19.332,0ZM85.34,41.474l5.232-.951,2.644,7.932L81.523,43.908A6.052,6.052,0,0,1,85.34,41.474ZM74.712,58V53.162a1.209,1.209,0,0,1,1.208-1.208,3.625,3.625,0,0,1,0,7.249A1.209,1.209,0,0,1,74.712,58ZM97.669,71.936,78.337,64.419V61.108a6.029,6.029,0,0,0,0-11.058V45.263l19.332,7.518ZM94.082,48.793l4.8-4.8,4.8,4.8-4.8,1.866Zm25.335,15.625-19.332,7.516V52.781l19.332-7.518V50.05a6.029,6.029,0,0,0,0,11.058ZM123.042,58a1.209,1.209,0,0,1-1.208,1.208,3.625,3.625,0,0,1,0-7.249,1.209,1.209,0,0,1,1.208,1.208Z" transform="translate(-72.296)" fill="#fff"/>
    </g>
  </g>
</svg>
