<svg xmlns="http://www.w3.org/2000/svg" width="58.065" height="75" viewBox="0 0 58.065 75">
  <g id="teacher" transform="translate(-13 -1)">
    <path id="Path_514" data-name="Path 514" d="M29,23h7.258v2.419H29Z" transform="translate(3.355 4.613)" fill="#fff"/>
    <path id="Path_515" data-name="Path 515" d="M67.435,32.452h-1.21V28.823a3.629,3.629,0,1,0-7.258,0v3.852a3.624,3.624,0,0,0-2.419,3.406v2.834a6.011,6.011,0,0,0,1.772,4.277l.561.561-.919,5.515a22.993,22.993,0,0,0-16.148-13l-.484-1.932a8.479,8.479,0,0,0,5.444-6.726h.1A4.832,4.832,0,0,0,50.9,20.1l.386-1.542A14.129,14.129,0,0,0,37.575,1H34.392a14.13,14.13,0,0,0-13.71,17.563l.386,1.544A4.83,4.83,0,0,0,25.1,27.613h.1a8.481,8.481,0,0,0,5.444,6.726l-.478,1.909A21.03,21.03,0,0,0,13,56.818v5.875A13.322,13.322,0,0,0,26.306,76H37.194a4.832,4.832,0,0,0,4.759-4.052,13.117,13.117,0,0,1,4.441-.786H51.71V68.455L53.4,70.478a8.624,8.624,0,0,0,15.249-5.521V43.84l.647-.647a6.011,6.011,0,0,0,1.772-4.277V36.081a3.633,3.633,0,0,0-3.629-3.629ZM62.6,27.613a1.21,1.21,0,0,1,1.21,1.21v3.852a3.615,3.615,0,0,0-1.21.721,3.6,3.6,0,0,0-1.21-.721V28.823A1.21,1.21,0,0,1,62.6,27.613ZM37.035,66.323a3.453,3.453,0,0,0-6.383-.51l-.254.51H27.516v-12.1h2.9a13.141,13.141,0,0,1,6.78,1.885V66.323ZM33.751,39.946l-3.3,2.638-1.438-3.6a18.581,18.581,0,0,1,1.954-.434Zm1.937,7.022h.594l1.99,6.965a15.549,15.549,0,0,0-4.1-1.661Zm.758-2.419h-.924l-1.043-2.085,1.5-1.2,1.5,1.2Zm1.771-4.6,2.768-1.384c.66.133,1.308.3,1.944.489l-1.414,3.533Zm6.235-19.591a2.419,2.419,0,1,1-2.419-2.419A2.422,2.422,0,0,1,44.452,20.355Zm2.419,4.839V20.355a2.419,2.419,0,1,1,0,4.839ZM34.393,3.419h3.183A11.718,11.718,0,0,1,48.941,17.978l-.1.388a4.788,4.788,0,0,0-1.973-.431h-.059a6.04,6.04,0,0,0-5.238-5.359l-.639-.08a4.278,4.278,0,0,1-3.742-4.239H34.774a6.7,6.7,0,0,0,5.86,6.639l.639.08a3.608,3.608,0,0,1,1.6.623,4.925,4.925,0,0,0-.84-.083,4.832,4.832,0,0,0-4.667,3.629H34.6a4.779,4.779,0,0,0-7.029-2.988,3.618,3.618,0,0,1,3.448-3.048A9.352,9.352,0,0,0,34.1,16.523l1.342-2.013a6.926,6.926,0,0,1-3.09-5.774V8.258H29.935v.478a9.393,9.393,0,0,0,.236,2.041A6.042,6.042,0,0,0,25.1,16.726v1.21a4.788,4.788,0,0,0-1.973.431l-.1-.388A11.718,11.718,0,0,1,34.393,3.419ZM29.935,17.935a2.419,2.419,0,1,1-2.419,2.419A2.422,2.422,0,0,1,29.935,17.935Zm-7.258,4.839A2.422,2.422,0,0,1,25.1,20.355v4.839A2.422,2.422,0,0,1,22.677,22.774ZM27.516,26.4V24.521A4.782,4.782,0,0,0,34.6,21.565h2.763a4.782,4.782,0,0,0,7.086,2.956V26.4A6.055,6.055,0,0,1,38.4,32.452H33.565A6.055,6.055,0,0,1,27.516,26.4Zm6.048,8.468H38.4c.189,0,.375-.016.56-.028l.45,1.8-3.429,1.715-3.429-1.715.45-1.8c.185.012.371.028.56.028ZM15.419,62.694V56.818A18.619,18.619,0,0,1,26.726,39.782l2.693,6.731,3.129-2.5.935,1.869-1.713,5.994c-.451-.04-.9-.067-1.357-.067H25.1V66.1a3.624,3.624,0,0,1-2.419-3.406V49.387H20.258V62.694a6.055,6.055,0,0,0,6.048,6.048h3.629v4.839H26.306A10.9,10.9,0,0,1,15.419,62.694ZM37.194,73.581H32.355V67.818l.462-.924a1.033,1.033,0,0,1,1.957.462v1.386h2.419a2.419,2.419,0,1,1,0,4.839Zm12.1-4.839h-2.9a15.507,15.507,0,0,0-4.684.723,4.836,4.836,0,0,0-2.1-2.47V56.11a13.144,13.144,0,0,1,6.78-1.885h2.9Zm10.731,2.419a6.188,6.188,0,0,1-4.766-2.233L51.71,64.674V51.806H46.393a15.569,15.569,0,0,0-5.884,1.156l-2.024-7.085.935-1.869,3.129,2.5L45.2,39.884A20.6,20.6,0,0,1,56.784,53.026l.352,1.2L55.354,64.915l2.387.4L61.2,44.548h5.024V64.957A6.212,6.212,0,0,1,60.021,71.161Zm7.56-29.679-.647.647H60.678l-.647-.647a3.61,3.61,0,0,1-1.063-2.567V36.081a1.21,1.21,0,1,1,2.419,0,3.633,3.633,0,0,0,3.629,3.629h3.543A3.615,3.615,0,0,1,67.582,41.482Zm1.063-4.192H65.016a1.21,1.21,0,1,1,0-2.419h2.419a1.21,1.21,0,0,1,1.21,1.21Z" fill="#fff"/>
  </g>
</svg>
